<?xml version="1.0" standalone="no"?><!-- Generator: Adobe Fireworks CS6, Export SVG Extension by Aaron Beall (http://fireworks.abeall.com) . Version: 0.6.1  --><!DOCTYPE svg PUBLIC "-//W3C//DTD SVG 1.1//EN" "http://www.w3.org/Graphics/SVG/1.1/DTD/svg11.dtd"><svg id="icons.fw-Page%201" viewBox="0 0 159 26" style="background-color:#ffffff00" version="1.1"	xmlns="http://www.w3.org/2000/svg" xmlns:xlink="http://www.w3.org/1999/xlink" xml:space="preserve"	x="0px" y="0px" width="159px" height="26px">	<g id="Layer%201">		<g>			<rect x="-0.1905" y="0" width="20" height="3" fill="#999999"/>			<rect x="-0.1905" y="12" width="20" height="3" fill="#999999"/>			<rect x="-0.1905" y="6" width="20" height="3" fill="#999999"/>		</g>		<path d="M 106.381 4.2883 C 105.3723 4.7419 104.2885 5.0486 103.1506 5.1864 C 104.3119 4.4806 105.2037 3.3628 105.6235 2.0309 C 104.537 2.6845 103.3335 3.1592 102.0524 3.415 C 101.0264 2.3065 99.5647 1.6138 97.9473 1.6138 C 94.8411 1.6138 92.323 4.1675 92.323 7.3173 C 92.323 7.7644 92.3728 8.1997 92.4686 8.6171 C 87.7944 8.3793 83.6504 6.1086 80.8766 2.6578 C 80.3925 3.5002 80.1152 4.48 80.1152 5.5253 C 80.1152 7.504 81.108 9.2498 82.6172 10.2727 C 81.6952 10.2431 80.828 9.9865 80.0697 9.5593 C 80.0693 9.5831 80.0692 9.6069 80.0692 9.631 C 80.0692 12.3945 82.0079 14.6998 84.5806 15.2238 C 84.1086 15.354 83.6118 15.4238 83.099 15.4238 C 82.7366 15.4238 82.3843 15.388 82.0408 15.3215 C 82.7565 17.5874 84.8335 19.2365 87.2944 19.2826 C 85.3698 20.8123 82.9448 21.7241 80.3098 21.7241 C 79.8557 21.7241 79.4082 21.6971 78.9683 21.6445 C 81.4572 23.2628 84.4133 24.207 87.5894 24.207 C 97.9341 24.207 103.5908 15.5159 103.5908 7.9787 C 103.5908 7.7314 103.5854 7.4855 103.5747 7.2409 C 104.6733 6.4367 105.627 5.4321 106.381 4.2883 Z" fill="#cccccc"/>		<path d="M 52.6334 0.3598 C 45.3812 0.3598 39.5 6.2448 39.5 13.5053 C 39.5 19.3123 43.2629 24.239 48.4827 25.9774 C 49.1394 26.098 49.3792 25.6921 49.3792 25.3438 C 49.3792 25.0318 49.3678 24.2051 49.3615 23.1082 C 45.7079 23.9026 44.937 21.3462 44.937 21.3462 C 44.3398 19.8276 43.4788 19.4234 43.4788 19.4234 C 42.2863 18.6078 43.5688 18.6243 43.5688 18.6243 C 44.887 18.7173 45.5808 19.979 45.5808 19.979 C 46.7523 21.9876 48.6548 21.4077 49.4032 21.0712 C 49.5225 20.2217 49.8618 19.6425 50.2371 19.3138 C 47.3204 18.9821 44.2544 17.8544 44.2544 12.8174 C 44.2544 11.3824 44.7661 10.209 45.6063 9.2902 C 45.4713 8.9576 45.0205 7.6211 45.7351 5.8114 C 45.7351 5.8114 46.8378 5.4579 49.3469 7.1589 C 50.3945 6.8674 51.5181 6.7216 52.635 6.7165 C 53.7504 6.7216 54.874 6.8674 55.9232 7.1589 C 58.4307 5.4579 59.5315 5.8114 59.5315 5.8114 C 60.248 7.6211 59.7972 8.9576 59.6622 9.2902 C 60.5039 10.209 61.0122 11.3824 61.0122 12.8174 C 61.0122 17.867 57.9413 18.9781 55.0153 19.3036 C 55.4869 19.7094 55.9071 20.5117 55.9071 21.7378 C 55.9071 23.4951 55.891 24.9128 55.891 25.3438 C 55.891 25.6953 56.1276 26.1043 56.7942 25.9758 C 62.0087 24.2343 65.7684 19.3107 65.7684 13.5053 C 65.7684 6.2448 59.8875 0.3598 52.6334 0.3598 Z" fill="#cccccc"/>		<g>			<path d="M 144.9248 5.5507 L 137.5692 12.1559 L 132.9995 16.0767 L 128.4638 12.1859 L 121.0752 5.5507 C 121.0305 5.6958 121 5.8475 121 6.0077 L 121 19.9835 C 121 20.0745 121.0106 20.1621 121.027 20.2476 C 121.1439 20.9557 121.7324 21.5 122.4396 21.5 L 143.5494 21.5 C 144.1849 21.5 144.7213 21.0587 144.9096 20.4558 L 144.9178 20.464 C 144.9672 20.312 145 20.1522 145 19.9835 L 145 6.0077 C 145 5.8475 144.9695 5.6958 144.9248 5.5507 Z" fill="#cccccc"/>			<path d="M 130.9426 12.5212 L 132.9995 14.2762 L 135.0614 12.5167 L 136.105 11.6263 L 143.9667 4.5685 C 143.8375 4.5283 143.7037 4.5 143.5626 4.5 L 122.4374 4.5 C 122.296 4.5 122.1618 4.5283 122.0324 4.5688 L 129.8987 11.6304 L 130.9426 12.5212 Z" fill="#cccccc"/>		</g>	</g></svg>